<mxfile host="app.diagrams.net" modified="2023-08-22T00:37:17.477Z" agent="Mozilla/5.0 (Windows NT 10.0; Win64; x64) AppleWebKit/537.36 (KHTML, like Gecko) Chrome/116.0.0.0 Safari/537.36" etag="4LEyyOC2XQY8kzjubaBo" version="21.6.8" type="device">
  <diagram id="kgpKYQtTHZ0yAKxKKP6v" name="Page-1">
    <mxGraphModel dx="1834" dy="750" grid="0" gridSize="10" guides="1" tooltips="1" connect="1" arrows="1" fold="1" page="0" pageScale="1" pageWidth="850" pageHeight="1100" math="0" shadow="0">
      <root>
        <mxCell id="0" />
        <mxCell id="1" parent="0" />
        <mxCell id="2hXy_7nuyApNZ1SJYwpB-1" value="&lt;b&gt;&lt;font style=&quot;font-size: 18px;&quot;&gt;Filters&lt;/font&gt;&lt;/b&gt;" style="rounded=0;whiteSpace=wrap;html=1;fillColor=#e1d5e7;strokeColor=#9673a6;" vertex="1" parent="1">
          <mxGeometry x="165" y="136" width="273" height="38" as="geometry" />
        </mxCell>
        <mxCell id="2hXy_7nuyApNZ1SJYwpB-5" value="&lt;b&gt;SQL Server&lt;/b&gt;" style="shape=cylinder3;whiteSpace=wrap;html=1;boundedLbl=1;backgroundOutline=1;size=15;fillColor=#fff2cc;strokeColor=#d6b656;gradientColor=#ffd966;" vertex="1" parent="1">
          <mxGeometry x="271.5" y="614" width="60" height="80" as="geometry" />
        </mxCell>
        <mxCell id="2hXy_7nuyApNZ1SJYwpB-6" value="" style="endArrow=classic;html=1;rounded=0;exitX=0.5;exitY=1;exitDx=0;exitDy=0;entryX=0.5;entryY=0;entryDx=0;entryDy=0;entryPerimeter=0;" edge="1" parent="1" source="2hXy_7nuyApNZ1SJYwpB-4" target="2hXy_7nuyApNZ1SJYwpB-5">
          <mxGeometry width="50" height="50" relative="1" as="geometry">
            <mxPoint x="399" y="406" as="sourcePoint" />
            <mxPoint x="449" y="356" as="targetPoint" />
          </mxGeometry>
        </mxCell>
        <mxCell id="2hXy_7nuyApNZ1SJYwpB-22" value="" style="group" vertex="1" connectable="0" parent="1">
          <mxGeometry x="165" y="421" width="273" height="161" as="geometry" />
        </mxCell>
        <mxCell id="2hXy_7nuyApNZ1SJYwpB-23" value="" style="group" vertex="1" connectable="0" parent="2hXy_7nuyApNZ1SJYwpB-22">
          <mxGeometry y="-47" width="273" height="145" as="geometry" />
        </mxCell>
        <mxCell id="2hXy_7nuyApNZ1SJYwpB-3" value="" style="rounded=0;whiteSpace=wrap;html=1;fillColor=#d5e8d4;strokeColor=#82b366;" vertex="1" parent="2hXy_7nuyApNZ1SJYwpB-23">
          <mxGeometry width="273" height="145" as="geometry" />
        </mxCell>
        <mxCell id="2hXy_7nuyApNZ1SJYwpB-18" value="&lt;font size=&quot;1&quot; style=&quot;&quot;&gt;&lt;b style=&quot;font-size: 18px;&quot;&gt;Identity&lt;/b&gt;&lt;/font&gt;" style="text;html=1;strokeColor=none;fillColor=none;align=center;verticalAlign=middle;whiteSpace=wrap;rounded=0;" vertex="1" parent="2hXy_7nuyApNZ1SJYwpB-23">
          <mxGeometry x="106.5" y="6" width="60" height="30" as="geometry" />
        </mxCell>
        <mxCell id="2hXy_7nuyApNZ1SJYwpB-19" value="&lt;font size=&quot;1&quot; style=&quot;&quot;&gt;&lt;b style=&quot;font-size: 16px;&quot;&gt;IdentityDbContext&lt;br&gt;&lt;/b&gt;&lt;/font&gt;" style="rounded=1;whiteSpace=wrap;html=1;fillColor=#d5e8d4;strokeColor=#82b366;gradientColor=#97d077;" vertex="1" parent="2hXy_7nuyApNZ1SJYwpB-23">
          <mxGeometry x="53" y="98" width="173" height="30" as="geometry" />
        </mxCell>
        <mxCell id="2hXy_7nuyApNZ1SJYwpB-20" value="&lt;font size=&quot;1&quot; style=&quot;&quot;&gt;&lt;b style=&quot;font-size: 16px;&quot;&gt;Managers &lt;br&gt;(SignIn &amp;amp; User)&lt;br&gt;&lt;/b&gt;&lt;/font&gt;" style="rounded=1;whiteSpace=wrap;html=1;fillColor=#d5e8d4;strokeColor=#82b366;gradientColor=#97d077;" vertex="1" parent="2hXy_7nuyApNZ1SJYwpB-23">
          <mxGeometry x="53" y="48" width="173" height="40" as="geometry" />
        </mxCell>
        <mxCell id="2hXy_7nuyApNZ1SJYwpB-4" value="&lt;b&gt;&lt;font style=&quot;font-size: 18px;&quot;&gt;Entity Framework&lt;/font&gt;&lt;/b&gt;" style="rounded=0;whiteSpace=wrap;html=1;fillColor=#f5f5f5;strokeColor=#666666;fontColor=#333333;" vertex="1" parent="2hXy_7nuyApNZ1SJYwpB-22">
          <mxGeometry y="98" width="273" height="56" as="geometry" />
        </mxCell>
        <mxCell id="2hXy_7nuyApNZ1SJYwpB-7" value="" style="rounded=0;whiteSpace=wrap;html=1;fillColor=#fff2cc;strokeColor=#d6b656;" vertex="1" parent="1">
          <mxGeometry x="165" y="243" width="273" height="135" as="geometry" />
        </mxCell>
        <mxCell id="2hXy_7nuyApNZ1SJYwpB-8" value="&lt;font size=&quot;1&quot; style=&quot;&quot;&gt;&lt;b style=&quot;font-size: 18px;&quot;&gt;Data&lt;/b&gt;&lt;/font&gt;" style="text;html=1;strokeColor=none;fillColor=none;align=center;verticalAlign=middle;whiteSpace=wrap;rounded=0;" vertex="1" parent="1">
          <mxGeometry x="271.5" y="250.66216216216216" width="60" height="32.83783783783784" as="geometry" />
        </mxCell>
        <mxCell id="2hXy_7nuyApNZ1SJYwpB-2" value="&lt;b&gt;&lt;font style=&quot;font-size: 18px;&quot;&gt;Controllers&lt;/font&gt;&lt;/b&gt;" style="rounded=0;whiteSpace=wrap;html=1;fillColor=#dae8fc;strokeColor=#6c8ebf;" vertex="1" parent="1">
          <mxGeometry x="165" y="175" width="273" height="76" as="geometry" />
        </mxCell>
        <mxCell id="2hXy_7nuyApNZ1SJYwpB-10" value="&lt;font size=&quot;1&quot; style=&quot;&quot;&gt;&lt;b style=&quot;font-size: 16px;&quot;&gt;User&lt;/b&gt;&lt;/font&gt;" style="rounded=1;whiteSpace=wrap;html=1;fillColor=#fff2cc;strokeColor=#d6b656;gradientColor=#ffd966;" vertex="1" parent="1">
          <mxGeometry x="185" y="335" width="101" height="29" as="geometry" />
        </mxCell>
        <mxCell id="2hXy_7nuyApNZ1SJYwpB-11" value="&lt;font size=&quot;1&quot; style=&quot;&quot;&gt;&lt;b style=&quot;font-size: 16px;&quot;&gt;Role&lt;/b&gt;&lt;/font&gt;" style="rounded=1;whiteSpace=wrap;html=1;fillColor=#fff2cc;strokeColor=#d6b656;gradientColor=#ffd966;" vertex="1" parent="1">
          <mxGeometry x="318" y="335" width="101" height="30" as="geometry" />
        </mxCell>
        <mxCell id="2hXy_7nuyApNZ1SJYwpB-17" value="&lt;font size=&quot;1&quot; style=&quot;&quot;&gt;&lt;b style=&quot;font-size: 16px;&quot;&gt;AuthDbContext&lt;/b&gt;&lt;/font&gt;" style="rounded=1;whiteSpace=wrap;html=1;fillColor=#fff2cc;strokeColor=#d6b656;gradientColor=#ffd966;" vertex="1" parent="1">
          <mxGeometry x="221" y="295" width="173" height="29" as="geometry" />
        </mxCell>
        <mxCell id="2hXy_7nuyApNZ1SJYwpB-31" value="&lt;font size=&quot;1&quot; style=&quot;&quot;&gt;&lt;b style=&quot;font-size: 18px;&quot;&gt;Services&lt;/b&gt;&lt;/font&gt;" style="rounded=0;whiteSpace=wrap;html=1;fillColor=#f5f5f5;strokeColor=#666666;fontColor=#333333;" vertex="1" parent="1">
          <mxGeometry x="-61" y="156.5" width="198" height="113" as="geometry" />
        </mxCell>
        <mxCell id="2hXy_7nuyApNZ1SJYwpB-34" value="&lt;font size=&quot;1&quot; style=&quot;&quot;&gt;&lt;b style=&quot;font-size: 18px;&quot;&gt;Models&lt;/b&gt;&lt;/font&gt;" style="rounded=0;whiteSpace=wrap;html=1;fillColor=#ffcccc;strokeColor=#36393d;" vertex="1" parent="1">
          <mxGeometry x="438" y="175" width="183" height="37" as="geometry" />
        </mxCell>
        <mxCell id="2hXy_7nuyApNZ1SJYwpB-35" value="&lt;font size=&quot;1&quot; style=&quot;&quot;&gt;&lt;b style=&quot;font-size: 18px;&quot;&gt;Common Library&lt;/b&gt;&lt;/font&gt;" style="rounded=0;whiteSpace=wrap;html=1;fillColor=#ffcccc;strokeColor=#36393d;" vertex="1" parent="1">
          <mxGeometry x="438" y="212" width="183" height="39" as="geometry" />
        </mxCell>
        <mxCell id="2hXy_7nuyApNZ1SJYwpB-36" value="&lt;font style=&quot;font-size: 20px;&quot;&gt;&lt;b&gt;Arquitetura em Camadas&lt;/b&gt;&lt;/font&gt;" style="text;html=1;strokeColor=none;fillColor=none;align=center;verticalAlign=middle;whiteSpace=wrap;rounded=0;" vertex="1" parent="1">
          <mxGeometry x="181.13" y="35" width="252.75" height="30" as="geometry" />
        </mxCell>
        <mxCell id="2hXy_7nuyApNZ1SJYwpB-37" value="" style="shape=doubleArrow;whiteSpace=wrap;html=1;fillColor=#fff2cc;strokeColor=#d6b656;" vertex="1" parent="1">
          <mxGeometry x="109" y="186.5" width="85" height="53" as="geometry" />
        </mxCell>
        <mxCell id="2hXy_7nuyApNZ1SJYwpB-38" value="" style="rounded=0;whiteSpace=wrap;html=1;fillColor=#f5f5f5;strokeColor=#666666;fontColor=#333333;dashed=1;" vertex="1" parent="1">
          <mxGeometry x="-61" y="303" width="198" height="151" as="geometry" />
        </mxCell>
        <mxCell id="2hXy_7nuyApNZ1SJYwpB-39" value="" style="shape=image;html=1;verticalAlign=top;verticalLabelPosition=bottom;labelBackgroundColor=#ffffff;imageAspect=0;aspect=fixed;image=https://cdn4.iconfinder.com/data/icons/evil-icons-user-interface/64/rotation_right-128.png" vertex="1" parent="1">
          <mxGeometry x="17" y="384.5" width="73" height="73" as="geometry" />
        </mxCell>
        <mxCell id="2hXy_7nuyApNZ1SJYwpB-40" value="&lt;font size=&quot;1&quot; style=&quot;&quot;&gt;&lt;b style=&quot;font-size: 18px;&quot;&gt;Background Service&lt;/b&gt;&lt;/font&gt;" style="text;html=1;strokeColor=none;fillColor=none;align=center;verticalAlign=middle;whiteSpace=wrap;rounded=0;" vertex="1" parent="1">
          <mxGeometry x="-67" y="328" width="215" height="30" as="geometry" />
        </mxCell>
        <mxCell id="2hXy_7nuyApNZ1SJYwpB-41" value="" style="image;sketch=0;aspect=fixed;html=1;points=[];align=center;fontSize=12;image=img/lib/mscae/Key.svg;" vertex="1" parent="1">
          <mxGeometry x="-4" y="392" width="31" height="50" as="geometry" />
        </mxCell>
        <mxCell id="2hXy_7nuyApNZ1SJYwpB-42" value="Private Key Rotator" style="text;html=1;strokeColor=none;fillColor=none;align=center;verticalAlign=middle;whiteSpace=wrap;rounded=0;" vertex="1" parent="1">
          <mxGeometry x="-21" y="367" width="118" height="30" as="geometry" />
        </mxCell>
        <mxCell id="2hXy_7nuyApNZ1SJYwpB-43" value="" style="image;aspect=fixed;html=1;points=[];align=center;fontSize=12;image=img/lib/azure2/security/Key_Vaults.svg;" vertex="1" parent="1">
          <mxGeometry x="-271" y="260" width="68" height="68" as="geometry" />
        </mxCell>
        <mxCell id="2hXy_7nuyApNZ1SJYwpB-44" value="" style="line;strokeWidth=2;direction=south;html=1;perimeterSpacing=100;" vertex="1" parent="1">
          <mxGeometry x="-124" y="186.5" width="10" height="225.5" as="geometry" />
        </mxCell>
        <mxCell id="2hXy_7nuyApNZ1SJYwpB-45" value="" style="endArrow=classic;html=1;rounded=0;entryX=0.298;entryY=0.489;entryDx=0;entryDy=0;entryPerimeter=0;exitX=0;exitY=0.5;exitDx=0;exitDy=0;" edge="1" parent="1" source="2hXy_7nuyApNZ1SJYwpB-31" target="2hXy_7nuyApNZ1SJYwpB-44">
          <mxGeometry width="50" height="50" relative="1" as="geometry">
            <mxPoint x="70" y="365" as="sourcePoint" />
            <mxPoint x="120" y="315" as="targetPoint" />
          </mxGeometry>
        </mxCell>
        <mxCell id="2hXy_7nuyApNZ1SJYwpB-46" value="" style="endArrow=classic;html=1;rounded=0;entryX=0.298;entryY=0.489;entryDx=0;entryDy=0;entryPerimeter=0;exitX=0;exitY=0.5;exitDx=0;exitDy=0;" edge="1" parent="1">
          <mxGeometry width="50" height="50" relative="1" as="geometry">
            <mxPoint x="-61" y="370.16999999999996" as="sourcePoint" />
            <mxPoint x="-117" y="370.16999999999996" as="targetPoint" />
          </mxGeometry>
        </mxCell>
        <mxCell id="2hXy_7nuyApNZ1SJYwpB-47" value="" style="endArrow=classic;html=1;rounded=0;entryX=1.01;entryY=0.507;entryDx=0;entryDy=0;entryPerimeter=0;exitX=0;exitY=0.5;exitDx=0;exitDy=0;" edge="1" parent="1" target="2hXy_7nuyApNZ1SJYwpB-43">
          <mxGeometry width="50" height="50" relative="1" as="geometry">
            <mxPoint x="-120" y="295" as="sourcePoint" />
            <mxPoint x="-176" y="295" as="targetPoint" />
          </mxGeometry>
        </mxCell>
        <mxCell id="2hXy_7nuyApNZ1SJYwpB-48" value="&lt;b&gt;Azure Key Vault&lt;/b&gt;" style="text;html=1;strokeColor=none;fillColor=none;align=center;verticalAlign=middle;whiteSpace=wrap;rounded=0;" vertex="1" parent="1">
          <mxGeometry x="-285" y="225" width="96" height="30" as="geometry" />
        </mxCell>
        <mxCell id="2hXy_7nuyApNZ1SJYwpB-49" value="" style="shape=doubleArrow;whiteSpace=wrap;html=1;fillColor=#fff2cc;strokeColor=#d6b656;direction=south;" vertex="1" parent="1">
          <mxGeometry x="14" y="243" width="53" height="84" as="geometry" />
        </mxCell>
        <mxCell id="2hXy_7nuyApNZ1SJYwpB-52" value="" style="group" vertex="1" connectable="0" parent="1">
          <mxGeometry x="379" y="89" width="37" height="77" as="geometry" />
        </mxCell>
        <mxCell id="2hXy_7nuyApNZ1SJYwpB-50" value="" style="shape=flexArrow;endArrow=classic;html=1;rounded=0;fillColor=#ffe6cc;strokeColor=#d79b00;" edge="1" parent="2hXy_7nuyApNZ1SJYwpB-52">
          <mxGeometry width="50" height="50" relative="1" as="geometry">
            <mxPoint as="sourcePoint" />
            <mxPoint x="1" y="77" as="targetPoint" />
          </mxGeometry>
        </mxCell>
        <mxCell id="2hXy_7nuyApNZ1SJYwpB-51" value="" style="shape=flexArrow;endArrow=classic;html=1;rounded=0;fillColor=#ffe6cc;strokeColor=#d79b00;" edge="1" parent="2hXy_7nuyApNZ1SJYwpB-52">
          <mxGeometry width="50" height="50" relative="1" as="geometry">
            <mxPoint x="37" y="74" as="sourcePoint" />
            <mxPoint x="37" as="targetPoint" />
          </mxGeometry>
        </mxCell>
        <mxCell id="2hXy_7nuyApNZ1SJYwpB-53" value="&lt;b&gt;Direção da Requisição HTTP&lt;/b&gt;" style="text;html=1;strokeColor=none;fillColor=none;align=center;verticalAlign=middle;whiteSpace=wrap;rounded=0;" vertex="1" parent="1">
          <mxGeometry x="433.88" y="86" width="107.12" height="30" as="geometry" />
        </mxCell>
      </root>
    </mxGraphModel>
  </diagram>
</mxfile>
